<svg version="1.1" xmlns="http://www.w3.org/2000/svg" style="display: block;" viewBox="0 0 1088 1392" width="272" height="348">
<path transform="translate(0,0)" fill="rgb(254,254,254)" d="M 842.506 482.543 L 843.966 483.832 C 846.359 489.608 846.868 496.826 847.754 503.026 C 852.455 535.93 854.206 570.307 849.147 603.257 C 836.359 686.549 783.669 706.476 723.511 750.46 C 721.256 751.952 719.359 753.258 716.651 753.806 C 715.88 749.293 725.022 736.64 727.759 732.13 C 744.375 704.751 763.07 678.802 779.951 651.616 C 812.33 599.469 833.932 543.39 842.506 482.543 z"/>
<path transform="translate(0,0)" fill="rgb(254,254,254)" d="M 561.379 2.52829 C 563.013 4.3848 562.714 4.56086 562.771 6.93967 C 563.905 54.1718 575.692 102.861 587.324 148.416 C 594.042 174.726 601.577 200.886 605.105 227.873 C 622.11 357.95 559.622 474.073 482.798 573.665 C 476.961 581.338 471.32 589.524 464.335 596.198 C 503.212 515.132 529.782 431.275 533.539 340.963 C 538.865 212.931 498.779 127.903 561.379 2.52829 z"/>
<path transform="translate(0,0)" fill="rgb(254,254,254)" d="M 679.017 14.3987 C 658.805 57.8547 658.026 86.2493 674.66 131.871 C 693.449 183.402 727.517 226.426 755.449 272.911 C 815.002 372.022 815.74 488.613 767.708 592.209 C 754.135 621.484 736.724 648.378 721.336 676.668 C 681.97 749.039 641.053 840.571 644.594 924.48 C 665.233 882.522 684.458 850.107 718.94 817.78 C 739.753 798.268 763.641 781.92 787.105 765.821 C 807.98 751.499 829.209 737.426 847.987 720.352 C 895.649 677.015 909.101 621.262 905.584 558.71 C 903.71 525.379 897.16 491.981 889.461 459.568 C 886.487 447.049 882.336 434.532 879.944 421.934 C 890.9 438.031 901.547 454.253 910.404 471.627 C 951.638 552.506 971.824 655.031 954.664 744.713 A 276.626 276.626 0 0 1 921.678 834.33 C 903.646 865.03 890.045 878.217 879.694 915.136 C 884.151 907.752 888.521 900.151 894.002 893.471 C 926.709 853.611 978.23 830.959 1019.09 800.547 C 1034.49 789.08 1046.15 776.548 1059.5 762.995 C 1023.12 833.306 980.965 921.203 1006.67 1001.55 C 1014.53 1026.09 1028.43 1048.77 1038.91 1072.3 C 1070.57 1143.37 1090.65 1219.35 1084.73 1297.66 C 1083.13 1318.78 1080.24 1350.04 1070.8 1368.65 C 1066.34 1377.44 1057.96 1385.52 1048.44 1388.57 C 1041.14 1390.91 1032.94 1389.45 1026.33 1385.81 C 1019.16 1381.87 1012.99 1375.09 1010.76 1367.12 C 1007 1353.69 1014.79 1339.04 1018.17 1326.22 A 168.389 168.389 0 0 0 1022.69 1302.3 C 1025.15 1280.57 1024.02 1258.5 1022.47 1236.73 C 1018.01 1173.99 1003.59 1092.41 944.392 1057.76 C 922.45 1044.92 896.92 1042.13 872.417 1048.65 C 854.833 1053.33 838.85 1062.87 824.625 1074.03 C 803.433 1090.65 786.835 1111.4 771.058 1133.03 C 717.078 1207.02 683.93 1269.77 578.503 1264.71 C 503.515 1261.11 428.57 1224.12 362.082 1192.06 C 327.34 1175.3 294.379 1153 258.352 1139.28 C 198.053 1116.33 134.805 1127.9 100.956 1186.6 C 82.6788 1218.29 75.3652 1259.42 79.8757 1295.61 C 81.533 1308.91 85.786 1324.31 83.1796 1337.63 C 81.1815 1347.85 75.1729 1355.04 65.0296 1357.79 C 56.7336 1360.04 48.2631 1358.98 40.8056 1354.7 C 22.2164 1344.02 16.3751 1318.88 11.4007 1299.59 C 8.98754 1290.23 2.26796 1246.33 0 1242.83 L 0 1184.92 L 1.54069 1183.99 C 4.33766 1161.91 7.76472 1140.22 13.6572 1118.74 C 34.7231 1041.92 80.3938 969.57 135.867 912.881 C 160.633 887.572 188.381 865.276 213.383 840.079 C 288.798 764.074 362.201 672.21 398.157 570.043 C 407.809 542.618 414.714 514.162 416.894 485.107 C 417.829 472.647 415.963 460.318 418.375 447.966 C 428.87 504.517 431.318 544.848 421.146 602.07 C 413.384 645.738 400.263 688.456 385.669 730.269 C 368.608 779.149 336.294 854.105 335.056 904.344 C 334.692 919.131 339.207 931.765 346.835 944.155 C 346.989 925.023 351.831 904.085 355.873 885.355 C 383.608 756.838 468.607 684.145 551.113 589.061 C 585.694 549.208 616.637 507.006 641.834 460.58 C 659.09 428.784 673.925 394.624 680.896 359.009 C 688.163 321.875 687.566 285.16 677.776 248.509 C 664.307 198.085 637.675 150.595 641.689 96.7044 C 643.941 66.4751 658.312 36.3466 679.017 14.3987 z"/>
</svg>