<svg version="1.1" xmlns="http://www.w3.org/2000/svg" style="display: block;" viewBox="0 0 2048 2048" width="1000" height="1000" preserveAspectRatio="none">
<path transform="translate(0,0)" fill="rgb(254,254,254)" d="M 963.545 0 L 1081.77 0 L 1082.83 0.182608 C 1103.45 3.57371 1129.97 5.14478 1151.54 7.85879 C 1191.24 12.9582 1230.63 20.2307 1269.54 29.6435 C 1503.97 87.4719 1710.41 226.311 1852.38 421.624 C 1938.91 541.186 1998.71 677.965 2027.71 822.676 C 2032.8 847.761 2036.58 872.458 2040.48 897.664 C 2042.23 908.914 2045.1 944.883 2048 954.293 L 2048 1090.67 L 2047.73 1091.98 C 2043.76 1111.7 2041.54 1140.86 2038.58 1161.39 C 2032.72 1202.39 2024.62 1243.04 2014.31 1283.15 C 1951.41 1523.69 1803.02 1733.07 1596.91 1872.12 C 1482.37 1949.53 1353.26 2002.8 1217.46 2028.7 C 1193.73 2033.35 1170.63 2037.05 1146.79 2040.61 C 1133.62 2042.58 1101.88 2044.88 1090.68 2048 L 955.105 2048 C 943.34 2045.09 908.902 2040.89 895.668 2039.08 C 869.687 2035.57 843.819 2031.28 818.097 2026.21 C 692.448 2000.98 572.73 1952.12 465.301 1882.24 C 252.551 1743.92 98.7911 1531.48 33.8761 1286.16 C 22.7474 1242.84 14.0399 1198.93 7.79386 1154.64 C 4.99279 1135.52 4.20829 1111.74 0 1093.5 L 0 952.453 C 1.81881 945.442 3.4217 925.445 4.73978 916.63 C 8.99726 888.155 12.2872 858.186 17.9762 830.018 C 46.7576 682.094 107.614 542.277 196.261 420.409 C 338.498 224.561 545.807 85.7406 781.065 28.8072 C 818.495 19.7913 856.392 12.8377 894.584 7.97786 C 916.339 5.19978 942.718 3.44889 963.545 0 z M 1052.49 2003.73 C 1593.75 1987.77 2019.6 1536.07 2003.68 994.813 C 1987.76 453.554 1536.09 27.6727 994.829 43.5577 C 453.515 59.4442 27.5832 511.164 43.5073 1052.48 C 59.4314 1593.79 511.181 2019.69 1052.49 2003.73 z"/>
<path transform="translate(0,0)" fill="rgb(254,254,254)" d="M 1170.43 177.408 C 1165.91 187.303 1159.45 200.659 1156.72 210.925 C 1148.12 243.06 1156.13 276.3 1167.22 306.519 C 1187.86 362.744 1227.17 412.229 1257.25 462.599 C 1301.7 537.043 1317.82 628.613 1299.85 713.473 C 1293.58 745.86 1283.81 777.906 1270.13 807.987 C 1253.26 845.062 1230.59 879.692 1211.44 915.628 C 1175.64 982.781 1145.23 1056.33 1135.24 1132.2 C 1134.01 1141.55 1131.45 1152.87 1130.84 1162.06 L 1141.37 1163.5 C 1148.84 1154.07 1154.62 1140 1161.15 1129.5 C 1190.89 1081.68 1231.68 1044.7 1278.12 1013.62 C 1326.94 980.38 1381.14 948.417 1406.6 892.381 C 1431.49 837.586 1427.01 772.432 1417.46 714.501 C 1412.74 685.924 1406.17 656.622 1396.24 629.539 C 1399.72 633.941 1403.69 638.715 1406.62 643.475 C 1439.03 696.099 1460.73 757.047 1472.65 816.785 C 1491.29 910.155 1484.54 1010.79 1429.6 1091.04 C 1419.58 1105.67 1403.34 1129.28 1400.05 1147.57 L 1407.58 1146.07 C 1419.16 1135.71 1426.53 1126.64 1439.13 1116.94 C 1477.91 1087.06 1520.73 1064.33 1559.14 1034.08 C 1570.82 1024.89 1579.72 1014.06 1590.04 1003.96 C 1554.68 1068.71 1523.34 1136.91 1522.35 1212.18 C 1524.44 1231.58 1529.05 1257.71 1536.77 1275.38 C 1548.98 1303.02 1563.61 1329.44 1575.19 1357.4 C 1602.7 1423.83 1622.33 1498.87 1620.94 1571.19 C 1620.43 1597.6 1612.41 1643.57 1602.35 1668.78 C 1595.37 1686.27 1569.62 1692.9 1553.29 1682.49 C 1546.78 1678.37 1542.34 1671.67 1541.09 1664.06 C 1538.53 1648.91 1545.64 1635.78 1548.69 1621.87 C 1551.05 1611.11 1554.8 1595.65 1556.05 1585.1 C 1558.65 1562.24 1555.52 1540.17 1553.1 1517.42 C 1551.27 1500.56 1550.32 1482.14 1547.74 1465.48 C 1536.38 1392.26 1486.04 1293.11 1396.22 1309.7 C 1296.41 1328.13 1257.41 1455.44 1186.18 1513.81 C 1160.06 1535.22 1129.74 1544.69 1096.75 1549.17 C 1088.36 1550.31 1079.91 1551.91 1071.37 1551.78 C 982.454 1547.45 897.042 1506.22 818.151 1468.25 C 753.57 1436.24 681.392 1380.3 605.483 1405.57 C 531.692 1430.14 501.364 1514.3 509.548 1585.89 C 511.308 1601.29 516.168 1621.36 512.795 1636.83 C 511.415 1643.16 501.422 1651.96 494.795 1653.12 C 451.383 1660.72 444.815 1613.16 435.575 1582.86 C 399.077 1451.53 455.986 1310.91 537.242 1208.14 C 550.453 1191.43 566.903 1173.4 582.34 1158.31 C 670.119 1079.42 752.265 994.636 813.508 893.081 C 853.521 826.73 879.779 761.313 886.268 683.809 C 886.688 678.803 886.864 670.507 890.105 666.759 C 891.692 668.037 891.785 669.132 891.833 671.375 C 892.264 691.185 892.094 711.843 891.532 731.632 C 890.86 755.301 891.799 778.658 889.867 802.187 C 881.78 857.683 863.749 912.32 846.055 965.187 C 827.712 1019.99 805.149 1072.79 794.518 1129.51 C 791.512 1146.07 792.527 1168.3 794.178 1184.91 C 797.928 1187.73 800.241 1190.08 804.795 1190.91 L 807.393 1190.23 C 811.532 1179.67 812.204 1160.07 814.462 1147.99 C 834.02 1043.36 894.007 957.085 966.727 881.83 C 974.641 873.641 982.878 864.351 990.777 856.031 C 1065.86 773.214 1139.41 685.23 1171.52 575.889 C 1185.74 526.265 1186.93 472.18 1170.96 422.807 C 1156.86 379.199 1138.43 337.657 1132.77 291.674 C 1130.01 269.286 1132.89 253.03 1139.92 231.928 C 1146.41 211.928 1156.78 193.402 1170.43 177.408 z"/>
<path transform="translate(0,0)" fill="rgb(20,15,19)" d="M 1130.84 1162.06 L 1141.37 1163.5 C 1139.09 1167.3 1137.53 1171.84 1132.61 1171.12 C 1130.22 1167.37 1131.04 1167.28 1130.84 1162.06 z"/>
<path transform="translate(0,0)" fill="rgb(20,15,19)" d="M 1400.05 1147.57 L 1407.58 1146.07 C 1402.19 1153.55 1397.6 1161.23 1392.48 1168.38 C 1394.04 1164.47 1399.95 1150.8 1400.05 1147.57 z"/>
<path transform="translate(0,0)" fill="rgb(254,254,254)" d="M 1042.46 165.71 C 1043.53 166.759 1043.83 167.485 1043.86 168.953 C 1045.44 241.107 1067.75 310.798 1084.09 380.244 C 1109.35 491.818 1074.05 605.642 1016.36 701.251 C 999.245 729.607 979.612 754.005 962.071 781.151 C 955.834 789.307 949.259 798.422 942.136 805.706 C 943.505 800.015 950.908 786.432 953.834 780.559 C 958.314 771.683 962.388 762.608 966.043 753.362 C 983.821 709.153 999.754 652.747 1006.8 605.262 C 1012.87 565.507 1015.22 525.275 1013.83 485.084 C 1009.95 376.787 984.956 266.772 1042.46 165.71 z"/>
<path transform="translate(0,0)" fill="rgb(254,254,254)" d="M 1356.9 691.494 C 1357.23 691.815 1357.6 692.09 1357.88 692.455 C 1358.97 693.895 1361.07 774.834 1360.83 784.176 C 1360.44 799.802 1360.02 816.523 1357.38 831.934 C 1343.63 912.197 1278.28 943.083 1218.54 985.414 L 1217.38 985.437 C 1216.29 982.426 1242.28 943.173 1245.5 938.2 C 1286.21 875.515 1316.86 833.985 1339.41 761.264 C 1346.39 738.741 1349.67 715.277 1356.49 692.832 L 1356.9 691.494 z"/>
</svg>