<?xml version="1.0" encoding="UTF-8"?>
<svg xmlns="http://www.w3.org/2000/svg" viewBox="0 0 460 80" width="230" height="40">
  <g transform="translate(0, -280)">
    <path d="M80.4,311.2c1.5-.1,3,0,4.5,0-.5,4.8-.1,9.9-.1,14.7,0,10.9.2,21.8,0,32.7-1.5,0-3-.1-4.5,0,.5-9.3,0-18.8,0-28.1,0-3.1,0-6.2.1-9.4-3.2,5.7-16.3,35-18.4,37-.7.3-1.4.5-2.2.3-.4,0-1-.2-1.3-.6-1.7-2.3-2.9-5.9-4.2-8.5l-7.6-15.9c-1.9-4.1-3.7-8.4-6.1-12.2.7,5.9.2,13.8.2,19.8,0,4.2.5,13.3-.3,17.1-1,.4-3.1.2-4.3.3.2-4.7,0-9.5,0-14.2,0-11.1-.2-22.2,0-33.2,1.4,0,2.8,0,4.3.1,3.6,6.6,6.7,13.5,9.9,20.2,3.3,6.9,6.9,13.7,9.9,20.8,3.8-8.1,7.7-16.2,11.6-24.2,2.7-5.6,5.3-11.3,8.3-16.8Z" fill="#FFF"/>
    <path d="M114,310.8c5.3-.6,10.7.4,15.2,3.3,5.4,3.5,9.3,8.6,10.7,15,1.3,6.2.5,13.4-3,18.7-4,6.1-9.7,9.4-16.8,10.9-6.1.6-11.9-.8-16.9-4.5-5.2-3.9-8.7-9.1-9.6-15.6-.9-6.6.4-13.2,4.5-18.5,4-5.2,9.5-8.5,15.9-9.3ZM114.1,315.1c-5.6,1.2-10,4-13,8.8-2.9,4.5-3.6,10.5-2.4,15.6,1.2,5.1,4.4,9.5,8.8,12.2,3.8,2.4,7.7,3,12.1,2.6,5.6-1.2,10.1-3.8,13.2-8.7,3-4.7,3.5-11,2.3-16.4-1.1-4.9-4.2-9.1-8.5-11.8-3.9-2.4-8-2.8-12.5-2.4Z" fill="#FFF"/>
    <path d="M168.7,310.8c5.2-.5,10.4.3,14.9,3.1,5.6,3.5,9.5,8.6,11,15.1,1.4,6.2.5,13.1-2.9,18.6-3.9,6.1-9.7,9.5-16.7,11.1-6.1.6-11.8-.6-16.8-4.2-5.2-3.8-9-9.1-9.9-15.5-1-6.7.3-13.2,4.4-18.7,4-5.2,9.5-8.5,16-9.4ZM168.8,315.1c-5.5,1.2-9.9,3.9-12.9,8.7-2.9,4.5-3.8,10.4-2.6,15.6,1.1,5,4.5,9.6,8.8,12.3,3.8,2.4,7.8,3.1,12.2,2.7,5.5-1.2,10-3.8,13.1-8.6,3-4.7,3.6-10.9,2.4-16.3-1.1-5-4.1-9.3-8.5-12.1-3.9-2.4-8-2.7-12.4-2.4Z" fill="#FFF"/>
    <path d="M204.2,311c11.2.5,21-2.1,29.9,6.6,4.5,4.4,6.9,10.7,7,16.9,0,6.8-2.7,12.8-7.4,17.5-9.2,8.3-18.2,5.4-29.3,6.3h-.3s0-32.9,0-32.9c0-4.1-.5-10.8.2-14.5ZM208.5,315v25c0,4.8.2,9.6,0,14.4,8.1,0,16.2.9,22.5-5.3l.2-.2c3.9-4.2,5.6-9.4,5.3-15.2-.2-5.4-2.3-10.7-6.3-14.3-6.1-5.6-14.1-4.3-21.7-4.5Z" fill="#FFF"/>
    <path d="M253.3,311.1c2.8,0,5.7,0,8.5,0,2.3,3.8,3.9,8.1,5.8,12.1l10.2,22.3c4.2-8,7.7-16.6,11.5-24.9,1.4-3.2,2.7-6.6,4.5-9.6,2.8-.2,5.7-.1,8.6,0-.3,4.6,0,9.4,0,14.1,0,11.1.2,22.3-.1,33.4h-8.9c.1-3.1,0-6.1,0-9.1,0-5.9.2-11.9,0-17.8-3.2,6.2-5.7,13-8.5,19.4-1,2.3-1.9,4.8-3.3,7-1.5,1.2-5.8.5-7.7.3-3.4-9-7.7-17.9-11.6-26.7-.5,9,.2,18-.2,27-2.9,0-5.9-.2-8.8,0,.2-15.8-.3-31.7.1-47.5Z" fill="#FFF"/>
    <path d="M312.2,311.1c2.7,0,5.4,0,8.2.2,2.4,3,4.4,6.5,6.5,9.7,4.7,7.2,9.2,14.6,14.2,21.6.1-10.5,0-21,0-31.4,3,0,6,0,9,0,0,5.1.5,45.9-.4,47.4-2.7,0-5.5.1-8.2-.2-2.3-2.8-4.2-6.3-6.1-9.3-4.8-7.4-9.5-14.9-14.4-22.2.1,3.8,0,7.6,0,11.4,0,6.8,0,13.6,0,20.4-2.9.2-5.8,0-8.8,0-.2-10.8,0-21.7,0-32.5,0-3.9-.5-11.5.2-14.9Z" fill="#FFF"/>
    <path d="M391.5,311.2c3.3-.3,6.8,0,10.2-.1-2.4,2.5-4.5,5.3-6.7,7.9-4.3,5-8.5,10-12.7,15.1,2.3,3.2,5.2,6.1,7.8,9.1,3.8,4.3,9.5,11.8,13.6,15.2-3.5,0-6.9.4-10.4-.1-1.5-1.2-2.8-2.8-4.1-4.3-3.9-4.4-7.9-9.8-12.4-13.5-2.8,3.4-6.2,6.7-8.4,10.4-.1,2.6-.2,5.1-.2,7.7-3,0-6,0-9,0,.4-11.2,0-22.5,0-33.7,0-4.5-.3-9.2,0-13.7,3,0,6,0,9,0-.2,2.6,0,5.3,0,7.9,0,6.6.3,13.4,0,20.1,8.1-8.6,15.4-18.9,23.3-27.9Z" fill="#FFF"/>
    <path d="M441,311.1c3.2-.3,6.6,0,9.9,0-4.3,5.7-8.2,11.8-12.1,17.7-1.7,2.4-4,5-5.1,7.8-1.1,3-.5,17.5-.6,21.9-2.9,0-5.8,0-8.7,0,.2-7.1.3-14.6,0-21.7-2.4-3.4-17-23.7-17.4-25.7,3.2,0,6.3-.1,9.5.2,1.7,1.8,3.1,4.2,4.5,6.3,2.6,3.8,5.2,7.7,7.8,11.6,4.3-5.8,8.2-12.1,12.3-18Z" fill="#FFF"/>
  </g>
</svg>